<svg width="60" height="60" viewBox="0 0 60 60" fill="none" xmlns="http://www.w3.org/2000/svg">
<path d="M19.8582 44.1621C19.8812 44.2339 19.8978 44.2967 19.9083 44.3507C19.9188 44.4047 19.9234 44.449 19.9222 44.4835C19.9209 44.518 19.9142 44.544 19.9021 44.5615C19.8899 44.5791 19.8728 44.5914 19.8505 44.5985C19.8183 44.6088 19.7592 44.6032 19.6731 44.5816C19.587 44.56 19.4763 44.5422 19.3408 44.5283C19.2053 44.5144 19.0481 44.5115 18.8692 44.5196C18.6902 44.5277 18.4918 44.5667 18.274 44.6364C18.0412 44.7109 17.8437 44.8185 17.6813 44.9592C17.5188 45.0999 17.3944 45.2654 17.3078 45.4554C17.2213 45.6455 17.1752 45.8555 17.1696 46.0852C17.1639 46.3149 17.2012 46.5548 17.2812 46.8049C17.3692 47.0797 17.4832 47.31 17.6232 47.4959C17.7632 47.6817 17.9214 47.8242 18.0978 47.9232C18.2742 48.0224 18.4661 48.0784 18.6736 48.0911C18.881 48.1039 19.0961 48.0745 19.3189 48.0032C19.4279 47.9684 19.5316 47.9215 19.6302 47.8627C19.7287 47.8039 19.8158 47.735 19.8916 47.6561L19.535 46.542L18.6251 46.8332C18.5805 46.8475 18.5369 46.8308 18.4943 46.783C18.4518 46.7352 18.4091 46.6445 18.3663 46.5107C18.3441 46.4415 18.3286 46.3823 18.3197 46.3332C18.3108 46.2842 18.308 46.2435 18.3113 46.211C18.3146 46.1787 18.3227 46.1529 18.3356 46.1336C18.3486 46.1145 18.3662 46.1013 18.3885 46.0942L20.0115 45.5747C20.0511 45.562 20.0885 45.5576 20.1238 45.5612C20.1591 45.565 20.1929 45.5767 20.2252 45.5964C20.2574 45.6161 20.2858 45.6432 20.3105 45.6775C20.3352 45.712 20.3554 45.7539 20.3713 45.8034L20.9836 47.7161C21.0073 47.7904 21.0151 47.8595 21.0069 47.9235C20.9988 47.9875 20.9596 48.0486 20.8894 48.1065C20.8193 48.1645 20.7303 48.2297 20.6226 48.3025C20.5148 48.3752 20.4012 48.4444 20.2816 48.5099C20.1619 48.5754 20.0392 48.6352 19.9132 48.6892C19.7872 48.7432 19.6585 48.7912 19.5273 48.8332C19.1435 48.9561 18.7823 49.0109 18.4438 48.9978C18.1052 48.9848 17.7972 48.9074 17.5198 48.7654C17.2424 48.6236 16.9999 48.4201 16.7922 48.1549C16.5844 47.8897 16.4196 47.5666 16.2975 47.1852C16.1715 46.7916 16.1178 46.4192 16.1364 46.0679C16.1549 45.7167 16.2381 45.3966 16.3859 45.1077C16.5336 44.8189 16.743 44.567 17.014 44.3519C17.285 44.1369 17.6099 43.9687 17.9887 43.8475C18.1967 43.7809 18.3906 43.7345 18.5706 43.7082C18.7506 43.6821 18.9108 43.669 19.0514 43.669C19.1919 43.6691 19.3119 43.6791 19.4111 43.6992C19.5103 43.7194 19.5822 43.7414 19.6268 43.7653C19.6713 43.7893 19.7111 43.8304 19.7462 43.8888C19.7812 43.9472 19.8186 44.0383 19.8582 44.1621Z" fill="#2A275E"/>
<path d="M23.9119 45.3784C23.8596 45.215 23.7984 45.0687 23.7284 44.9397C23.6585 44.8105 23.5762 44.7052 23.4819 44.6234C23.3875 44.5418 23.2797 44.4889 23.1588 44.4648C23.0378 44.4408 22.8994 44.4537 22.7434 44.5036C22.6047 44.548 22.4915 44.6123 22.4038 44.6963C22.316 44.7803 22.2544 44.8819 22.2189 45.0011C22.1833 45.1204 22.1708 45.2539 22.1814 45.4021C22.192 45.5502 22.2254 45.7122 22.2816 45.8879C22.3339 46.0514 22.3957 46.1974 22.4669 46.3261C22.5381 46.4548 22.6203 46.5602 22.7135 46.6423C22.8066 46.7244 22.9141 46.7767 23.036 46.799C23.1577 46.8215 23.2954 46.8081 23.449 46.7589C23.59 46.7138 23.7045 46.6492 23.7922 46.5652C23.88 46.4812 23.9418 46.3801 23.9777 46.2622C24.0137 46.1442 24.0257 46.0114 24.014 45.8637C24.0021 45.7159 23.9681 45.5542 23.9119 45.3784ZM24.8619 45.0334C24.9522 45.3156 24.9975 45.585 24.9977 45.8415C24.998 46.098 24.9495 46.3347 24.8524 46.5513C24.7552 46.768 24.6074 46.9587 24.409 47.1232C24.2105 47.2877 23.959 47.4187 23.6545 47.5162C23.3598 47.6105 23.0905 47.6517 22.8465 47.6397C22.6024 47.6277 22.3836 47.5668 22.1901 47.4567C21.9966 47.3467 21.8287 47.1889 21.6865 46.9833C21.5442 46.7778 21.4264 46.5289 21.3329 46.2367C21.2425 45.9544 21.1976 45.6843 21.1982 45.4261C21.1989 45.1679 21.2479 44.9312 21.3455 44.7157C21.443 44.5002 21.5904 44.3104 21.7876 44.1463C21.9849 43.9822 22.2357 43.8514 22.5402 43.7539C22.8374 43.6588 23.1077 43.6166 23.3514 43.6273C23.595 43.638 23.8129 43.6986 24.0052 43.809C24.1975 43.9194 24.3648 44.0774 24.507 44.283C24.6492 44.4887 24.7676 44.7387 24.8619 45.0334" fill="#2A275E"/>
<path d="M28.2901 42.4312C28.2363 42.2629 28.1622 42.1338 28.0679 42.0438C27.9736 41.9539 27.8748 41.8968 27.7715 41.8725C27.6681 41.8483 27.5667 41.8447 27.467 41.8615C27.3673 41.8784 27.2667 41.9031 27.1653 41.9356L26.7493 42.0687L27.2712 43.6991L27.7094 43.5588C27.8654 43.5089 27.9892 43.4461 28.081 43.3703C28.1728 43.2945 28.24 43.2082 28.2826 43.1112C28.3253 43.0144 28.3471 42.9078 28.3481 42.7914C28.3491 42.6751 28.3298 42.555 28.2901 42.4312ZM29.2889 42.0337C29.3753 42.3037 29.4096 42.556 29.392 42.7909C29.3744 43.0259 29.3079 43.2403 29.1926 43.4342C29.0772 43.628 28.9144 43.7995 28.7043 43.9487C28.494 44.0979 28.2305 44.2232 27.9136 44.3247L27.5125 44.453L28.0035 45.9868C28.0114 46.0116 28.0105 46.0365 28.0007 46.0614C27.991 46.0864 27.9695 46.111 27.9364 46.1353C27.9032 46.1595 27.8568 46.1853 27.7973 46.2125C27.7378 46.2398 27.6598 46.2688 27.5631 46.2997C27.469 46.3299 27.3893 46.3513 27.3238 46.3641C27.2583 46.3769 27.205 46.383 27.1639 46.3825C27.1228 46.382 27.0916 46.3743 27.0704 46.3592C27.0492 46.3442 27.0346 46.3243 27.0268 46.2995L25.643 41.9766C25.6057 41.8602 25.6081 41.7633 25.6501 41.6856C25.6921 41.6081 25.7627 41.5534 25.8618 41.5217L26.9945 41.1591C27.1083 41.1227 27.218 41.0923 27.3236 41.068C27.4291 41.0439 27.5582 41.023 27.7109 41.0055C27.8636 40.988 28.0259 40.9941 28.1979 41.0237C28.3697 41.0533 28.5265 41.1102 28.6681 41.1945C28.8098 41.2788 28.9329 41.3909 29.0378 41.5307C29.1425 41.6705 29.2263 41.8382 29.2889 42.0337" fill="#E57D08"/>
<path d="M31.9573 44.7294C31.9652 44.7542 31.9647 44.7782 31.9558 44.8015C31.9469 44.8248 31.9264 44.8484 31.8945 44.8723C31.8626 44.8962 31.8179 44.9207 31.7604 44.9459C31.703 44.9711 31.6284 44.9984 31.5369 45.0277C31.4453 45.057 31.3688 45.0781 31.3074 45.0909C31.2459 45.1038 31.1953 45.1098 31.1555 45.1089C31.1156 45.108 31.0853 45.1006 31.0645 45.0868C31.0437 45.073 31.0293 45.0538 31.0214 45.0289L29.4581 40.1453C29.4502 40.1205 29.4505 40.0959 29.459 40.0713C29.4675 40.0467 29.4875 40.0219 29.519 39.9968C29.5506 39.9717 29.5949 39.9459 29.6519 39.9194C29.709 39.893 29.7833 39.8651 29.8749 39.8358C29.9665 39.8065 30.0432 39.786 30.105 39.7744C30.1668 39.7628 30.2179 39.7581 30.2582 39.7602C30.2983 39.7623 30.3292 39.7709 30.3503 39.786C30.3715 39.801 30.3861 39.821 30.394 39.8457L31.9573 44.7294Z" fill="#E57D08"/>
<path d="M34.3441 42.4136L33.9876 42.5277C33.8365 42.576 33.7114 42.6284 33.6121 42.6848C33.5127 42.7411 33.4367 42.8023 33.3842 42.8682C33.3316 42.9342 33.2999 43.0037 33.2892 43.0768C33.2784 43.1498 33.2862 43.2272 33.3123 43.3088C33.3567 43.4476 33.4355 43.5424 33.5488 43.5935C33.662 43.6446 33.7966 43.6452 33.9526 43.5953C34.0839 43.5533 34.1939 43.4812 34.2826 43.3791C34.3714 43.277 34.4521 43.1433 34.5248 42.9781L34.3441 42.4136ZM35.7156 43.5387C35.7267 43.5733 35.723 43.6045 35.7046 43.6322C35.6861 43.66 35.6517 43.6867 35.6013 43.7124C35.5508 43.7381 35.4736 43.7676 35.3696 43.8008C35.2582 43.8365 35.1757 43.8581 35.1222 43.8657C35.0686 43.8733 35.0282 43.8706 35.0008 43.8575C34.9734 43.8445 34.9542 43.8206 34.9431 43.7859L34.8587 43.5222C34.7692 43.7119 34.6504 43.8755 34.502 44.0131C34.3536 44.1507 34.1729 44.2536 33.96 44.3217C33.7841 44.378 33.6153 44.4067 33.4534 44.4081C33.2914 44.4095 33.1421 44.3822 33.0054 44.3263C32.8688 44.2704 32.7494 44.1851 32.6471 44.0705C32.545 43.9558 32.4653 43.8093 32.4082 43.6311C32.3464 43.4379 32.3304 43.2582 32.3604 43.0916C32.3904 42.925 32.4653 42.7714 32.5855 42.6306C32.7055 42.4898 32.8699 42.3614 33.0784 42.2455C33.287 42.1296 33.5385 42.0246 33.8332 41.9302L34.1563 41.8268L34.0921 41.6262C34.0588 41.5223 34.0191 41.4346 33.9731 41.3634C33.9271 41.2921 33.8717 41.2382 33.8067 41.2017C33.7419 41.1651 33.6651 41.1474 33.5768 41.1484C33.4884 41.1495 33.3847 41.1689 33.2659 41.207C33.11 41.2568 32.9762 41.3188 32.8647 41.3927C32.7533 41.4666 32.6572 41.5397 32.5767 41.6118C32.496 41.6841 32.4297 41.7476 32.3777 41.8025C32.3256 41.8573 32.2797 41.8911 32.2402 41.9038C32.2129 41.9125 32.186 41.9116 32.1595 41.901C32.1329 41.8904 32.1076 41.8712 32.0837 41.8433C32.0597 41.8155 32.0366 41.7793 32.0141 41.7346C31.9916 41.69 31.9712 41.6391 31.953 41.5822C31.9285 41.5055 31.9152 41.4428 31.9133 41.3942C31.9114 41.3457 31.922 41.298 31.9452 41.251C31.9684 41.204 32.0164 41.145 32.0892 41.0738C32.162 41.0028 32.2506 40.9301 32.3551 40.8557C32.4596 40.7813 32.5767 40.7104 32.7066 40.6428C32.8365 40.5753 32.9745 40.5182 33.1206 40.4715C33.3806 40.3882 33.6109 40.3425 33.8116 40.3342C34.0122 40.3259 34.1889 40.3553 34.3414 40.4225C34.4939 40.4897 34.624 40.5976 34.7316 40.746C34.8391 40.8945 34.9294 41.0826 35.0023 41.3103L35.7156 43.5387Z" fill="#E57D08"/>
<path d="M39.8083 42.2162C39.8162 42.241 39.8157 42.2651 39.8069 42.2884C39.7979 42.3117 39.7781 42.3351 39.7474 42.3586C39.7167 42.3821 39.672 42.4066 39.6134 42.4322C39.5546 42.4577 39.4807 42.4849 39.3916 42.5134C39.3 42.5427 39.2229 42.564 39.1602 42.5772C39.0976 42.5905 39.047 42.5965 39.0084 42.5951C38.9697 42.5939 38.94 42.5863 38.9192 42.5725C38.8984 42.5587 38.8841 42.5394 38.8761 42.5146L38.271 40.6243C38.2195 40.4634 38.1673 40.3409 38.1145 40.2567C38.0616 40.1727 38.0024 40.105 37.9369 40.0536C37.8713 40.0024 37.7975 39.97 37.7155 39.9566C37.6334 39.9434 37.5453 39.9517 37.4512 39.9819C37.3324 40.0199 37.2261 40.1017 37.1326 40.2271C37.039 40.3527 36.9531 40.5194 36.875 40.7272L37.58 42.9295C37.588 42.9543 37.5874 42.9783 37.5785 43.0016C37.5696 43.025 37.5492 43.0486 37.5173 43.0725C37.4853 43.0964 37.4406 43.1209 37.3832 43.1461C37.3257 43.1712 37.2512 43.1986 37.1596 43.2279C37.068 43.2572 36.9915 43.2782 36.9301 43.2911C36.8687 43.3039 36.818 43.3099 36.7782 43.309C36.7383 43.3081 36.708 43.3008 36.6872 43.287C36.6664 43.2732 36.6521 43.2539 36.6441 43.2291L35.5837 39.9164C35.5758 39.8916 35.575 39.868 35.5815 39.8454C35.5879 39.8229 35.6052 39.8004 35.6335 39.7776C35.6616 39.7549 35.7002 39.7324 35.749 39.7099C35.7977 39.6875 35.8605 39.664 35.9372 39.6394C36.0165 39.614 36.0831 39.5962 36.1371 39.5857C36.191 39.5752 36.2342 39.5716 36.2667 39.5749C36.2991 39.5782 36.3245 39.5871 36.3428 39.6017C36.3611 39.6163 36.3743 39.636 36.3822 39.6607L36.5046 40.0433C36.6244 39.7866 36.7632 39.5784 36.9209 39.4187C37.0786 39.2591 37.2602 39.1464 37.4657 39.0805C37.691 39.0084 37.8929 38.9847 38.0715 39.0095C38.2499 39.0342 38.4073 39.0951 38.5434 39.1921C38.6795 39.2891 38.796 39.4162 38.8928 39.5736C38.9896 39.731 39.0764 39.9297 39.1533 40.1699L39.8083 42.2162Z" fill="#E57D08"/>
<path d="M42.2329 39.2128C42.1563 38.948 42.0377 38.7587 41.8771 38.6449C41.7165 38.5312 41.5186 38.512 41.2834 38.5873C41.1646 38.6253 41.0683 38.6807 40.9947 38.7534C40.9211 38.8261 40.8672 38.9095 40.8333 39.0036C40.7992 39.0979 40.7832 39.2013 40.7851 39.3139C40.7871 39.4265 40.8042 39.5418 40.8365 39.6598L42.2329 39.2128ZM43.2247 39.1901C43.2611 39.304 43.2627 39.3963 43.2294 39.467C43.1961 39.5378 43.1348 39.5873 43.0457 39.6159L41.0291 40.2614C41.0743 40.4025 41.132 40.5253 41.2022 40.6297C41.2726 40.7341 41.3571 40.8149 41.4558 40.872C41.5547 40.9291 41.6684 40.9603 41.797 40.9655C41.9256 40.9708 42.0703 40.9476 42.2313 40.8961C42.3947 40.8438 42.5345 40.7861 42.6508 40.7229C42.7671 40.6598 42.8658 40.5995 42.9471 40.5421C43.0283 40.4847 43.0949 40.4347 43.1468 40.3921C43.1987 40.3496 43.2432 40.3224 43.2803 40.3105C43.3026 40.3034 43.3226 40.3018 43.3402 40.3057C43.3578 40.3096 43.3751 40.3211 43.3922 40.3402C43.4092 40.3594 43.4262 40.3887 43.443 40.4284C43.4597 40.468 43.4781 40.5189 43.4978 40.5807C43.5153 40.6352 43.5289 40.682 43.5387 40.7211C43.5485 40.7604 43.5553 40.7944 43.5591 40.8231C43.5628 40.852 43.5627 40.8773 43.5588 40.899C43.5548 40.9207 43.5476 40.9429 43.537 40.9653C43.5265 40.9879 43.4901 41.0254 43.4277 41.0781C43.3655 41.1308 43.2832 41.1892 43.1809 41.2533C43.0786 41.3174 42.959 41.383 42.8222 41.45C42.6852 41.517 42.5352 41.5768 42.3717 41.629C42.0771 41.7234 41.8071 41.7689 41.5617 41.7655C41.3163 41.7621 41.0952 41.7088 40.8983 41.6053C40.7015 41.5018 40.5296 41.3466 40.3829 41.1398C40.2361 40.9329 40.1132 40.6747 40.0142 40.3652C39.9198 40.0706 39.8732 39.7928 39.8743 39.5317C39.8753 39.2708 39.9225 39.0345 40.016 38.8231C40.1093 38.6116 40.2467 38.4292 40.4282 38.2755C40.6097 38.1219 40.8316 38.0031 41.0941 37.9191C41.3714 37.8303 41.6215 37.7953 41.8445 37.814C42.0675 37.8327 42.2653 37.8943 42.438 37.9986C42.6106 38.1031 42.7583 38.2448 42.8812 38.4238C43.004 38.603 43.1026 38.8089 43.1771 39.0415L43.2247 39.1901Z" fill="#E57D08"/>
<path d="M46.3654 39.757C46.4003 39.866 46.4202 39.9518 46.4252 40.0143C46.4302 40.0769 46.4253 40.1234 46.4106 40.154C46.3958 40.1848 46.3697 40.2163 46.3323 40.2487C46.295 40.2811 46.2493 40.3134 46.1956 40.3458C46.1417 40.3779 46.082 40.4087 46.0162 40.4379C45.9505 40.4671 45.883 40.4929 45.8137 40.515C45.628 40.5745 45.4595 40.6024 45.3083 40.599C45.1571 40.5956 45.0213 40.5593 44.9008 40.49C44.7803 40.4207 44.6753 40.3185 44.5857 40.1834C44.496 40.0484 44.4187 39.8793 44.3538 39.6763L43.8105 37.979L43.4131 38.1063C43.366 38.1213 43.3208 38.1038 43.2775 38.0534C43.2341 38.0033 43.1906 37.91 43.147 37.7738C43.124 37.702 43.1077 37.6404 43.098 37.5889C43.0883 37.5374 43.0851 37.4954 43.0884 37.4629C43.0917 37.4305 43.1006 37.4052 43.1152 37.3868C43.1298 37.3685 43.1495 37.3554 43.1743 37.3474L43.568 37.2214L43.3314 36.4824C43.3235 36.4576 43.3231 36.4331 43.3304 36.409C43.3376 36.3849 43.3571 36.3602 43.3886 36.3351C43.4201 36.31 43.4652 36.2846 43.524 36.259C43.5826 36.2334 43.6566 36.2063 43.7457 36.1778C43.8372 36.1485 43.9144 36.1272 43.9771 36.114C44.0397 36.1008 44.0905 36.0954 44.1296 36.0979C44.1686 36.1004 44.1987 36.1093 44.2198 36.1243C44.2411 36.1394 44.2556 36.1593 44.2636 36.184L44.5001 36.923L45.2206 36.6924C45.2453 36.6845 45.269 36.6838 45.2916 36.6901C45.3141 36.6966 45.3361 36.7121 45.3576 36.7366C45.379 36.7611 45.4008 36.7971 45.4229 36.8446C45.4449 36.8923 45.4675 36.9519 45.4904 37.0236C45.534 37.1598 45.5527 37.261 45.5466 37.3271C45.5405 37.3932 45.5138 37.4338 45.4668 37.4489L44.7426 37.6806L45.2407 39.2368C45.2986 39.4175 45.3705 39.544 45.4563 39.6161C45.5422 39.6883 45.6582 39.7009 45.8043 39.6541C45.8537 39.6383 45.897 39.6198 45.9338 39.5984C45.9706 39.577 46.0027 39.5558 46.0301 39.5348C46.0575 39.5138 46.0803 39.4955 46.0986 39.4801C46.1168 39.4647 46.1347 39.4542 46.152 39.4487C46.1668 39.4439 46.1825 39.4437 46.1989 39.448C46.2152 39.4524 46.2313 39.4663 46.2471 39.4899C46.2628 39.5135 46.281 39.5466 46.3014 39.5891C46.3218 39.6318 46.3432 39.6878 46.3654 39.757Z" fill="#E57D08"/>
<path d="M36.7908 43.5231L38.362 43.037L38.5059 43.5024L37.9621 43.6706L38.4725 45.3204L37.989 45.47L37.4786 43.8202L36.9347 43.9885L36.7908 43.5231Z" fill="#E57D08"/>
<path d="M40.8596 44.5818L40.3399 44.7426L39.726 44.1711L39.4964 44.2421L39.7114 44.9371L39.228 45.0866L38.5736 42.9716L39.4196 42.7098C39.6211 42.6475 39.8141 42.665 39.9987 42.7624C40.1834 42.8598 40.3068 43.0092 40.3692 43.2106C40.4084 43.3375 40.4089 43.4676 40.3707 43.6008C40.3345 43.7334 40.2673 43.848 40.1691 43.9446L40.8596 44.5818ZM39.5599 43.163L39.1973 43.2752L39.3655 43.8191L39.7281 43.7069C39.7946 43.6864 39.8429 43.6427 39.873 43.576C39.9052 43.5087 39.9094 43.4367 39.8857 43.3602C39.862 43.2837 39.8179 43.2267 39.7534 43.1893C39.6908 43.1512 39.6263 43.1425 39.5599 43.163Z" fill="#E57D08"/>
<path d="M42.9603 43.9319L42.4315 44.0955L42.2229 43.7959L41.4373 44.0389L41.4344 44.404L40.9056 44.5676L40.9704 42.23L41.5868 42.0393L42.9603 43.9319ZM41.4497 42.6876L41.4421 43.5408L41.9377 43.3875L41.4497 42.6876Z" fill="#E57D08"/>
<path d="M44.1437 43.5658L43.5273 43.7565L42.184 41.8546L42.7128 41.691L43.6625 43.1022L43.6494 41.4012L44.1782 41.2376L44.1437 43.5658Z" fill="#E57D08"/>
<path d="M45.2379 42.3069L45.3538 42.6816L46.1999 42.4198L46.3438 42.8851L45.0143 43.2965L44.36 41.1814L45.6743 40.7747L45.8183 41.2401L44.9874 41.4971L45.0958 41.8476L45.8512 41.6139L45.9933 42.0732L45.2379 42.3069Z" fill="#E57D08"/>
<path d="M46.4457 40.5361L46.9561 42.1859L47.7115 41.9522L47.8554 42.4175L46.6166 42.8008L45.9622 40.6857L46.4457 40.5361Z" fill="#E57D08"/>
<path d="M41.5902 25.1917C41.5902 29.4722 39.5474 33.2761 36.3829 35.6806C36.1313 35.4144 35.8724 35.1189 35.6163 34.7944C34.9702 33.9733 34.3463 32.9667 33.9113 31.7617C33.8096 31.4794 33.7179 31.1861 33.6391 30.8822C33.2857 29.5239 33.1818 27.9461 33.5168 26.1328C33.5346 25.99 33.5529 25.7956 33.6274 25.6772C33.8474 26.0794 34.0979 26.4356 34.3385 26.98C34.6229 27.6222 34.8202 28.195 35.0602 28.8156C35.5474 30.0756 35.6168 31.5967 36.0363 30.0633C36.0696 29.9417 36.1052 29.8011 36.1429 29.6394C36.2407 29.225 36.2629 28.7772 36.2413 28.3072C36.2279 27.9956 36.1702 27.6683 36.0785 27.345C35.9146 26.7656 35.6413 26.1967 35.3157 25.7422C35.2963 25.715 35.2757 25.6894 35.2563 25.6639C35.1985 25.5917 35.1402 25.5217 35.0918 25.4339C35.2907 25.4483 35.4429 25.4922 35.6463 25.53L37.8291 26.1661C38.0207 26.2406 38.1841 26.3156 38.3763 26.3622C38.7879 26.4611 39.2474 26.7633 39.4802 26.7272C39.5096 26.5617 39.5196 26.5478 39.3857 26.3333C39.3252 26.2367 39.2007 26.0128 39.1374 25.9222C38.7879 25.4189 38.2324 24.8428 37.7168 24.5239C37.5974 24.4494 37.5013 24.4022 37.3846 24.3367C36.9579 24.0944 36.7829 24.065 36.3907 23.9278C35.9802 23.7844 34.8402 23.6517 34.4529 23.7861C34.4846 23.6422 34.9396 23.16 34.8424 22.94C34.7585 22.75 34.5546 22.9506 34.4307 23.0294C34.0768 23.2544 33.4335 23.6972 33.1263 23.8328L31.8568 22.6089C31.7568 22.5261 31.7391 22.52 31.5868 22.5839C31.6246 22.7833 31.5774 22.8683 31.6896 23.1211C31.8652 23.5189 31.7946 23.3917 32.0468 23.7267C31.8402 23.7594 30.4063 23.4511 29.0729 24.2267C28.2418 24.71 27.9818 24.8411 27.3202 25.6972L27.0385 26.1178C26.9741 26.2667 26.9657 26.1061 27.0341 26.3028C27.3846 26.2361 27.8146 25.9 28.2646 25.7772C28.5068 25.7117 29.4491 25.295 30.1491 25.0911C30.3846 25.0228 30.5735 24.9578 30.7791 24.9117L32.0163 24.7733C31.7324 24.9061 31.4013 25.2522 31.1018 25.6672C30.8046 26.0783 30.5391 26.5572 30.3841 26.9628C30.3446 27.0639 30.3124 27.16 30.2885 27.25C30.2535 27.3794 30.2257 27.4422 30.1929 27.5872C30.0157 28.365 30.0052 29.8433 30.4085 30.3789C30.5813 30.285 30.6235 30.035 30.6846 29.8011L30.7963 29.52L31.5313 27.6683C31.6135 27.5 31.7024 27.3094 31.7985 27.1122C31.8846 26.9361 31.9768 26.755 32.0763 26.58C32.2779 26.2256 32.5102 25.8967 32.7813 25.6922C32.7646 25.7861 32.7507 25.81 32.7296 25.9217C32.7102 26.0244 32.7024 26.095 32.6841 26.1839C32.5824 26.7756 32.5263 27.3994 32.5079 28.04C32.4141 31.3539 33.3291 35.105 34.1268 37.055C33.9591 37.1378 33.7891 37.2178 33.6174 37.2939C32.0241 37.9789 30.2679 38.3583 28.4235 38.3583C21.1518 38.3583 15.2568 32.4633 15.2568 25.1917C15.2568 17.92 21.1518 12.025 28.4235 12.025C35.6952 12.025 41.5902 17.92 41.5902 25.1917Z" fill="#2A275E"/>
<path d="M34.6662 17.52L30.8879 20.5495L29.9385 22.3411C29.8035 22.5945 29.589 22.7978 29.3274 22.9156L28.6801 23.2106L28.9974 22.0356C28.206 22.3946 27.4029 22.8915 26.5868 23.5406C26.4168 23.6917 26.2468 23.8433 26.0779 23.9956C25.5296 24.4906 24.9846 24.9945 24.4262 25.5322C22.6379 27.2533 20.7168 29.315 18.1357 32.4889C17.0968 33.7667 16.0174 35.0717 15.1379 36.4678C14.7829 37.0306 14.4524 37.62 14.3568 38.2933C14.2379 39.1311 14.5996 39.5017 15.4474 39.4639C16.4929 39.4167 19.524 38.0422 21.3462 36.9145C20.4785 38.0422 16.2024 40.7289 14.219 41.2328C13.9974 41.2895 13.7735 41.3439 13.5474 41.3745C12.619 41.5 11.3674 41.0795 11.8885 38.3895C13.0824 34.3467 17.0629 30.9422 20.2674 27.7133C21.229 26.7439 22.5818 25.5761 24.0296 24.4056C24.3185 24.1728 24.6107 23.9395 24.9046 23.7072C25.0918 23.5595 25.2807 23.4117 25.4685 23.2656L24.6812 22.9867L25.4524 22.345L26.4246 22.2772L28.1307 20.9695L24.3007 20.9906L25.3385 20.27C25.4862 20.1667 25.6557 20.0956 25.834 20.0611L30.5596 19.1467L32.5657 17.645C33.0468 17.2861 33.6379 17.1072 34.2362 17.1395L34.5474 17.1567C34.7346 17.1667 34.8112 17.4011 34.6662 17.52Z" fill="#E57D08"/>
<path d="M40.3824 15.4685C39.4134 15.4685 38.6279 14.683 38.6279 13.714C38.6279 12.745 39.4134 11.9595 40.3824 11.9595C41.3514 11.9595 42.1369 12.745 42.1369 13.714C42.1369 14.683 41.3514 15.4685 40.3824 15.4685ZM40.374 11.0003C38.874 11.0003 37.658 12.2163 37.658 13.7164C37.658 15.2164 38.874 16.4324 40.374 16.4324C41.8741 16.4324 43.0901 15.2164 43.0901 13.7164C43.0901 12.2163 41.8741 11.0003 40.374 11.0003" fill="#E57D08"/>
</svg>
